<svg width="627" height="886" viewBox="0 0 627 886" fill="none" xmlns="http://www.w3.org/2000/svg">
<g clip-path="url(#clip0_120_78)">
<rect width="627" height="886" fill="#111111"/>
<path fill-rule="evenodd" clip-rule="evenodd" d="M857.104 540.716C1021.16 602.597 1138 761.269 1138 947.043V1315.84C1138 1351.25 1109.25 1380 1073.84 1380H703.917C464.984 1380 271.001 1186.02 271.001 947.084L128.082 1020.27C128.082 780.792 322.297 586.365 561.514 586.365C615.235 586.365 809.608 522.802 857.104 540.716ZM1047.83 1314.11L703.894 1314.11C679.046 1314.13 654.266 1311.61 629.921 1306.65C606.356 1301.81 583.328 1294.65 561.167 1285.29C517.557 1266.8 477.919 1240.07 444.453 1206.55C410.934 1173.08 384.196 1133.44 365.712 1089.83C356.348 1067.67 349.187 1044.64 344.349 1021.08C339.39 996.734 336.875 971.955 336.893 947.107V946.881C336.875 921.964 339.39 897.116 344.366 872.701C349.204 849.066 356.383 825.97 365.764 803.757C384.283 760.025 445.93 751.07 479.5 717.5C513.019 683.912 517.835 626.317 561.514 607.78C583.692 598.382 606.755 591.221 630.355 586.365C654.735 581.389 679.549 578.875 704.432 578.892C726.835 578.875 749.17 580.903 771.209 584.943C792.554 588.88 813.518 594.706 833.841 602.37C868.313 615.393 900.635 633.53 929.714 656.176C958.672 678.701 984.092 705.387 1005.19 735.351C1026.51 765.592 1043.1 798.867 1054.46 834.067C1066.18 870.568 1072.14 908.664 1072.11 947.003V1289.83C1072.11 1303.23 1061.23 1314.11 1047.83 1314.11Z" fill="url(#paint0_radial_120_78)"/>
<path fill-rule="evenodd" clip-rule="evenodd" d="M546.326 96.2105C484.445 260.271 325.774 377.108 140 377.108L-333.842 443C-369.252 443 -398 414.252 -398 378.842V8.91571C-398 -230.017 -204.017 -424 34.9156 -424H35.0925C274.574 -424 469 -229.785 469 9.43243C469 63.1535 564.24 48.7145 546.326 96.2105ZM-332.108 352.832V8.89319C-332.125 -15.955 -329.611 -40.7339 -324.652 -65.0793C-319.814 -88.6443 -312.653 -111.672 -303.289 -133.832C-284.804 -177.442 -258.066 -217.082 -224.548 -250.548C-191.082 -284.066 -151.443 -310.804 -107.832 -329.289C-85.6719 -338.652 -62.6444 -345.814 -39.0793 -350.652C-14.7339 -355.611 10.0449 -358.125 34.8931 -358.108H35.1185C60.0361 -358.125 84.8843 -355.611 109.299 -350.634C132.933 -345.797 156.03 -338.618 178.243 -329.237C221.974 -310.718 261.718 -283.945 295.288 -250.375C328.875 -216.856 355.683 -177.165 374.22 -133.486C383.618 -111.308 390.779 -88.2455 395.635 -64.6458C400.611 -40.2657 379.517 -15.4505 379.5 9.43243C379.517 31.8357 401.097 54.1679 397.056 76.2071C393.12 97.5526 315.164 103.678 307.5 124C294.478 158.472 348.47 205.633 325.824 234.712C303.299 263.67 244.964 242.397 215 263.5C184.759 284.811 183.133 348.098 147.933 359.456C111.432 371.178 73.3359 377.143 34.9972 377.108H-307.832C-321.231 377.108 -332.108 366.231 -332.108 352.832Z" fill="url(#paint1_radial_120_78)"/>
</g>
<defs>
<radialGradient id="paint0_radial_120_78" cx="0" cy="0" r="1" gradientUnits="userSpaceOnUse" gradientTransform="translate(125.446 796.199) scale(507.554 507.554)">
<stop stop-color="#32F9F3"/>
<stop offset="1" stop-color="#EF38D9"/>
</radialGradient>
<radialGradient id="paint1_radial_120_78" cx="0" cy="0" r="1" gradientUnits="userSpaceOnUse" gradientTransform="translate(185.801 -569.555) rotate(105.126) scale(1048.9 1048.9)">
<stop stop-color="#F433D7"/>
<stop offset="1" stop-color="#32B4FE"/>
</radialGradient>
<clipPath id="clip0_120_78">
<rect width="627" height="886" fill="white"/>
</clipPath>
</defs>
</svg>
