<svg width="2156" height="2156" viewBox="0 0 2156 2156" fill="none" xmlns="http://www.w3.org/2000/svg">
<g clip-path="url(#clip0_227_2)">
<path d="M1561.66 542.207C1572.04 570.521 1563.28 602.09 1540.89 622.268L1400.38 750.497C1403.95 777.51 1405.89 805.174 1405.89 833.163C1405.89 861.152 1403.95 888.815 1400.38 915.828L1540.89 1044.06C1563.28 1064.24 1572.04 1095.8 1561.66 1124.12C1547.38 1162.85 1530.18 1199.95 1510.39 1235.75L1495.13 1262.11C1473.72 1297.91 1449.7 1331.76 1423.42 1363.65C1404.27 1387.09 1372.47 1394.9 1343.91 1385.78L1163.16 1328.18C1119.68 1361.7 1071.65 1389.69 1020.38 1410.84L979.815 1596.68C973.324 1626.29 950.609 1649.73 920.754 1654.61C875.972 1662.09 829.891 1666 782.838 1666C735.784 1666 689.704 1662.09 644.921 1654.61C615.067 1649.73 592.351 1626.29 585.861 1596.68L545.297 1410.84C494.025 1389.69 445.998 1361.7 402.513 1328.18L222.087 1386.11C193.53 1395.22 161.728 1387.09 142.582 1363.98C116.297 1332.08 92.283 1298.24 70.8654 1262.44L55.6135 1236.08C35.8185 1200.28 18.6195 1163.17 4.34114 1124.44C-6.04314 1096.13 2.71859 1064.56 25.1097 1044.38L165.622 916.154C162.052 888.815 160.105 861.152 160.105 833.163C160.105 805.174 162.052 777.51 165.622 750.497L25.1097 622.268C2.71859 602.09 -6.04314 570.521 4.34114 542.207C18.6195 503.478 35.8185 466.376 55.6135 430.576L70.8654 404.214C92.283 368.414 116.297 334.567 142.582 302.672C161.728 279.24 193.53 271.429 222.087 280.542L402.838 338.147C446.322 304.625 494.349 276.636 545.622 255.482L586.185 69.6472C592.676 40.0309 615.391 16.5982 645.246 11.7164C690.028 3.90545 736.108 0 783.162 0C830.216 0 876.296 3.90545 921.079 11.3909C950.933 16.2727 973.649 39.7054 980.139 69.3217L1020.7 255.156C1071.98 276.311 1120 304.3 1163.49 337.821L1344.24 280.216C1372.79 271.103 1404.6 279.24 1423.74 302.347C1450.03 334.241 1474.04 368.089 1495.46 403.889L1510.71 430.25C1530.51 466.05 1547.7 503.152 1561.98 541.881L1561.66 542.207ZM783.162 1093.53C852.014 1093.53 918.046 1066.1 966.732 1017.27C1015.42 968.44 1042.77 902.215 1042.77 833.163C1042.77 764.11 1015.42 697.886 966.732 649.058C918.046 600.23 852.014 572.799 783.162 572.799C714.31 572.799 648.278 600.23 599.592 649.058C550.907 697.886 523.555 764.11 523.555 833.163C523.555 902.215 550.907 968.44 599.592 1017.27C648.278 1066.1 714.31 1093.53 783.162 1093.53Z" fill="#515151"/>
<path d="M2153.74 1571.17C2159.15 1585.9 2154.59 1602.33 2142.93 1612.83L2069.8 1679.56C2071.66 1693.62 2072.68 1708.02 2072.68 1722.58C2072.68 1737.15 2071.66 1751.55 2069.8 1765.6L2142.93 1832.34C2154.59 1842.84 2159.15 1859.27 2153.74 1874C2146.31 1894.16 2137.36 1913.46 2127.06 1932.09L2119.12 1945.81C2107.97 1964.44 2095.48 1982.06 2081.8 1998.66C2071.83 2010.85 2055.28 2014.92 2040.42 2010.17L1946.35 1980.2C1923.72 1997.64 1898.72 2012.21 1872.04 2023.21L1850.93 2119.92C1847.55 2135.34 1835.73 2147.53 1820.19 2150.07C1796.89 2153.97 1772.9 2156 1748.42 2156C1723.93 2156 1699.95 2153.97 1676.64 2150.07C1661.1 2147.53 1649.28 2135.34 1645.9 2119.92L1624.79 2023.21C1598.11 2012.21 1573.11 1997.64 1550.48 1980.2L1456.58 2010.34C1441.72 2015.08 1425.17 2010.85 1415.2 1998.83C1401.52 1982.23 1389.03 1964.61 1377.88 1945.98L1369.94 1932.26C1359.64 1913.63 1350.69 1894.32 1343.26 1874.17C1337.85 1859.43 1342.41 1843.01 1354.07 1832.51L1427.2 1765.77C1425.34 1751.55 1424.32 1737.15 1424.32 1722.58C1424.32 1708.02 1425.34 1693.62 1427.2 1679.56L1354.07 1612.83C1342.41 1602.33 1337.85 1585.9 1343.26 1571.17C1350.69 1551.01 1359.64 1531.71 1369.94 1513.08L1377.88 1499.36C1389.03 1480.73 1401.52 1463.11 1415.2 1446.51C1425.17 1434.32 1441.72 1430.25 1456.58 1435L1550.65 1464.97C1573.28 1447.53 1598.28 1432.96 1624.96 1421.95L1646.07 1325.24C1649.45 1309.83 1661.27 1297.64 1676.81 1295.1C1700.11 1291.03 1724.1 1289 1748.58 1289C1773.07 1289 1797.05 1291.03 1820.36 1294.93C1835.9 1297.47 1847.72 1309.66 1851.1 1325.08L1872.21 1421.79C1898.89 1432.79 1923.89 1447.36 1946.52 1464.81L2040.59 1434.83C2055.45 1430.08 2072 1434.32 2081.96 1446.34C2095.64 1462.94 2108.14 1480.56 2119.29 1499.19L2127.23 1512.91C2137.53 1531.54 2146.48 1550.84 2153.91 1571L2153.74 1571.17ZM1748.58 1858.08C1784.42 1858.08 1818.78 1843.8 1844.12 1818.39C1869.46 1792.98 1883.69 1758.52 1883.69 1722.58C1883.69 1686.65 1869.46 1652.19 1844.12 1626.78C1818.78 1601.36 1784.42 1587.09 1748.58 1587.09C1712.75 1587.09 1678.39 1601.36 1653.05 1626.78C1627.71 1652.19 1613.48 1686.65 1613.48 1722.58C1613.48 1758.52 1627.71 1792.98 1653.05 1818.39C1678.39 1843.8 1712.75 1858.08 1748.58 1858.08Z" fill="#515151"/>
</g>
<defs>
<clipPath id="clip0_227_2">
<rect width="2156" height="2156" fill="white"/>
</clipPath>
</defs>
</svg>
