<svg width="200" height="200" viewBox="0 0 200 200" fill="none" xmlns="http://www.w3.org/2000/svg">
<path d="M97.6781 76.963C89.3493 79.125 83.6646 80.7464 75.4681 82.9084C73.485 83.4489 73.3528 83.5841 71.6342 81.5572C69.6511 79.2601 68.1969 77.7737 65.4206 76.4225C57.0919 72.2336 49.0275 73.4497 41.4919 78.4493C32.5022 84.3948 27.875 93.1779 28.0073 104.123C28.1395 114.933 35.4106 123.851 45.8546 125.337C54.8444 126.554 62.38 123.311 68.3291 116.419C69.5189 114.933 70.5766 113.311 71.8986 111.42C67.1393 111.42 61.1902 111.42 46.3834 111.42C43.6072 111.42 42.9462 109.663 43.8716 107.366C45.5902 103.177 48.7631 96.1506 50.6139 92.6374C51.0105 91.8266 51.936 90.4754 53.919 90.4754C60.6613 90.4754 85.5155 90.4754 102.041 90.4754C101.776 94.1237 101.776 97.7721 101.248 101.42C99.7934 111.149 96.2239 120.068 90.407 127.905C80.8884 140.742 68.4613 148.714 52.7292 150.876C39.7733 152.633 27.7429 150.065 17.1666 141.958C7.38362 134.391 1.8311 124.392 0.376874 111.96C-1.34176 97.2316 2.88873 83.9894 11.6141 72.3687C21.0005 59.8022 33.4276 51.8299 48.6309 48.9923C61.058 46.6951 72.9562 48.1815 83.6646 55.6133C90.6714 60.3427 95.6951 66.8287 99.0001 74.6659C99.7934 75.882 99.2646 76.5576 97.6781 76.963Z" fill="#00ACD7"/>
<path d="M141.482 151.401C129.349 151.132 118.282 147.632 108.949 139.556C101.082 132.691 96.1485 123.942 94.5484 113.578C92.1484 98.3673 96.2818 84.907 105.348 72.9272C115.082 60.0053 126.815 53.2751 142.682 50.4484C156.282 48.0255 169.082 49.3716 180.682 57.3132C191.216 64.5818 197.749 74.4079 199.482 87.3298C201.749 105.501 196.549 120.308 184.149 132.96C175.349 141.979 164.549 147.632 152.149 150.19C148.549 150.863 144.949 150.997 141.482 151.401ZM173.216 97.0213C173.082 95.2714 173.082 93.9254 172.816 92.5794C170.416 79.2536 158.282 71.7158 145.615 74.6771C133.215 77.5038 125.215 85.4454 122.282 98.0981C119.882 108.597 124.949 119.231 134.549 123.538C141.882 126.769 149.215 126.365 156.282 122.731C166.816 117.212 172.549 108.597 173.216 97.0213Z" fill="#00ACD7"/>
</svg>
