<svg width="2156" height="2156" viewBox="0 0 2156 2156" fill="none" xmlns="http://www.w3.org/2000/svg">
<path d="M981.339 1903C876.541 1903 785.765 1880.85 709.011 1836.56C632.995 1791.52 574.323 1729.88 532.994 1651.62C491.665 1572.63 471 1481.83 471 1379.21H776.539C778.016 1452.3 796.466 1510.62 831.891 1554.17C868.054 1596.99 915.287 1618.4 973.59 1618.4C1011.23 1618.4 1044.81 1609.54 1074.33 1591.83C1103.85 1573.37 1127.1 1546.79 1144.07 1512.09C1161.78 1476.66 1170.64 1433.84 1170.64 1383.64V253H1495V1379.21C1495 1489.95 1472.86 1584.44 1428.58 1662.7C1385.04 1740.95 1324.52 1800.75 1247.03 1842.09C1170.27 1882.7 1081.71 1903 981.339 1903Z" fill="#FF3033"/>
</svg>
