<svg width="200" height="200" viewBox="0 0 200 200" fill="none" xmlns="http://www.w3.org/2000/svg">
<g clip-path="url(#clip0_695_140)">
<path fill-rule="evenodd" clip-rule="evenodd" d="M47.9297 69.4521C56.8851 69.5273 63.986 72.1291 68.502 77.834C72.9507 83.4542 74.1992 90.892 72.8389 99.6562C72.2965 103.714 71.1092 107.676 69.2959 111.537C67.4854 115.53 64.9598 119.161 61.8428 122.248C57.9924 126.235 53.7272 128.918 49.0303 130.072C44.7231 131.131 40.2745 131.655 35.6943 131.655H25.2236L21.1533 152H0.345703L16.8154 69.4512H47.917L47.9297 69.4521ZM36.4551 87.4326C35.6479 87.4966 34.86 87.5313 34.0918 87.5371L28.8203 113.89C35.1624 113.906 40.3123 113.247 44.3447 111.988C47.2292 111.025 50.0354 107.383 51.5791 98.6104C52.1896 95.0436 52.113 92.6043 51.6553 91.0664C51.2501 89.7055 50.6102 89.1732 49.7549 88.9199L49.748 88.918L49.7402 88.916C46.3522 87.8944 41.9526 87.3703 36.4551 87.4326Z" fill="#787CB5"/>
<path fill-rule="evenodd" clip-rule="evenodd" d="M174.913 69.4521C183.868 69.5273 190.97 72.1292 195.486 77.834C199.935 83.4541 201.185 90.8921 199.824 99.6562C199.28 103.727 198.087 107.703 196.264 111.576L196.263 111.575C194.453 115.554 191.934 119.171 188.827 122.248C184.977 126.235 180.712 128.918 176.015 130.072C171.708 131.131 167.259 131.655 162.679 131.655H152.208L148.137 152H127.33L143.799 69.4512H174.901L174.913 69.4521ZM163.439 87.4326C162.632 87.4966 161.844 87.5313 161.076 87.5371L155.805 113.89C162.146 113.906 167.296 113.247 171.328 111.988C174.211 111.026 177.016 107.387 178.561 98.623L178.668 97.9658C179.163 94.7475 179.068 92.5098 178.639 91.0664C178.234 89.7057 177.594 89.1732 176.739 88.9199L176.725 88.916C173.337 87.8944 168.937 87.3703 163.439 87.4326Z" fill="#787CB5"/>
<path d="M101.086 69.4512H110.845L110.874 69.4521C118.447 69.6013 124.626 71.1565 128.916 74.5859C133.892 78.5043 134.704 85.4326 133.164 93.6416L133.162 93.6602L125.514 131.655H104.597L112.146 94.1504C112.833 90.7136 112.371 89.2992 112.036 88.8594C111.946 88.7412 111.652 88.4505 110.797 88.1904C109.937 87.9288 108.686 87.7549 106.96 87.7549H106.934L97.4502 87.6689L88.6709 131.655H67.9658L84.5498 49H105.265L101.086 69.4512Z" fill="#787CB5"/>
</g>
<defs>
<clipPath id="clip0_695_140">
<rect width="200" height="200" fill="white"/>
</clipPath>
</defs>
</svg>
