<svg width="2156" height="2156" viewBox="0 0 2156 2156" fill="none" xmlns="http://www.w3.org/2000/svg">
<path d="M937.797 984.261L1078.41 2156L2015.8 1617V539L937.797 984.261Z" fill="#0092B7"/>
<path d="M1078.4 937.391V2156L141.008 1617V539L1078.4 937.391Z" fill="#29D1FB"/>
<path d="M141 539L468.689 727.411L1089.52 544.999L1406.05 188.383L1078.39 0L141 539Z" fill="#00ACD7"/>
<path d="M750.758 889.602L1078.39 1078L2015.78 538.999L1688.16 350.574L1062.73 535.62L750.758 889.602Z" fill="#00ACD7"/>
<path d="M750.763 1358.29L468.688 1196.11V727.41L740.583 748.647L750.763 889.602V1358.29Z" fill="#92E9FF"/>
<path d="M468.688 727.413L1406.05 188.385L1688.16 350.577L750.763 889.605L468.688 727.413Z" fill="#62DEFD"/>
<path d="M1634.79 1304.67C1670.35 1304.67 1704.01 1308.85 1735.63 1317.4C1766.73 1325.81 1795.57 1337.77 1822.01 1353.36C1847.46 1367.61 1870.2 1385.26 1890.13 1406.27L1892 1408.23C1911.28 1428.54 1927.78 1450.95 1941.47 1475.44L1941.5 1475.5L1941.54 1475.56C1957.14 1503.78 1968.89 1534.69 1976.91 1568.13L1977.69 1571.3C1985.61 1604.12 1989.5 1638.71 1989.5 1675V1735.02C1989.5 1770.69 1985.71 1805 1978.04 1837.87L1978.03 1837.91L1978.02 1837.94C1970.38 1870.33 1959.37 1900.34 1944.87 1927.84L1944.74 1928.08L1944.61 1928.32C1930.65 1953.66 1914.09 1977.03 1894.93 1998.38L1894.85 1998.48L1894.76 1998.57C1875.42 2019.76 1854.06 2037.78 1830.65 2052.49L1830.65 2052.49C1803.95 2069.39 1774.47 2082.21 1742.38 2091.06L1742.38 2091.06C1710.38 2099.97 1676.34 2104.33 1640.39 2104.33H1417.49V1304.67H1634.79ZM1063.25 1464.9C1050.79 1464.9 1040.79 1466.7 1032.8 1469.67L1032.45 1469.8L1032.1 1469.92C1023.58 1472.84 1016.35 1476.97 1010.13 1482.26C1001.27 1489.86 993.515 1499.44 986.973 1511.37C980.547 1523.71 975.274 1538.18 971.366 1555.01L971.345 1555.1L971.321 1555.2C967.938 1569.34 965.431 1584.6 963.853 1601.01C962.251 1617.66 961.443 1634.86 961.443 1652.61V1756.39C961.443 1773.5 962.086 1790.25 963.362 1806.64C964.935 1822.23 967.419 1836.88 970.777 1850.61L970.838 1850.85L970.894 1851.1C974.501 1867.02 979.554 1881.67 985.983 1895.13C991.941 1907.28 998.664 1916.51 1005.85 1923.41L1006.55 1924.07L1006.71 1924.22L1006.87 1924.38C1013.56 1930.82 1021.33 1935.89 1030.43 1939.59C1039.24 1943.05 1050.18 1945.11 1063.76 1945.11C1076.78 1945.11 1087.67 1943.18 1096.82 1939.81C1106.13 1936.38 1114.11 1931.47 1121.02 1925.04L1121.31 1924.77L1121.6 1924.51C1130.19 1916.94 1137.7 1907.35 1143.99 1895.32L1144.11 1895.09L1144.23 1894.86C1151.05 1882.37 1156.66 1867.93 1160.88 1851.35L1160.94 1851.11L1161.01 1850.87C1164.59 1837.73 1167.21 1823.27 1168.76 1807.43L1168.78 1807.18L1168.81 1806.92C1170.72 1790.45 1171.67 1773.6 1171.67 1756.39V1652.61C1171.67 1635.04 1170.71 1618.02 1168.81 1601.57L1168.78 1601.29L1168.75 1601.01C1167.21 1584.97 1164.46 1570.11 1160.57 1556.36L1160.54 1556.23C1156.03 1540 1150.12 1525.67 1142.95 1513.06L1142.83 1512.84L1142.71 1512.61C1136.23 1500.74 1128.55 1491.19 1119.79 1483.6C1112.78 1478.12 1104.65 1473.67 1095.21 1470.36L1094.75 1470.2L1094.29 1470.02C1086.07 1466.82 1075.88 1464.9 1063.25 1464.9ZM1610.34 1938.5H1640.39C1657.59 1938.5 1672.89 1936.44 1686.49 1932.58C1700.38 1928.31 1712.71 1922.43 1723.64 1915.06L1723.78 1914.97C1735.05 1907.46 1745.17 1897.82 1754.14 1885.78L1754.27 1885.61L1754.4 1885.43C1763.65 1873.38 1771.65 1859.01 1778.22 1842.04C1783.5 1827.93 1787.6 1811.99 1790.38 1794.08L1790.42 1793.84L1790.46 1793.59C1793.55 1775.69 1795.3 1756.11 1795.63 1734.81V1674.22C1795.3 1653.99 1793.56 1635.11 1790.48 1617.53L1790.43 1617.24L1790.38 1616.95C1787.62 1599.17 1783.38 1583.12 1777.8 1568.72L1777.16 1567.1C1770.52 1550.52 1761.93 1536 1751.5 1523.38L1751.28 1523.11L1751.06 1522.84C1740.82 1509.84 1728.8 1499.48 1714.87 1491.57L1714.77 1491.51L1714.68 1491.46C1704.36 1485.49 1692.49 1480.68 1678.9 1477.21L1678.53 1477.12L1678.17 1477.02C1665.53 1473.45 1651.14 1471.52 1634.79 1471.52H1610.34V1938.5ZM347.663 2104.33H165.5V1304.67H382.445L388.362 1326.43L442.415 1525.21L503.188 1325.58L509.553 1304.67H725.805V2104.33H543.642V1839.52L543.647 1839.24L546.236 1706.62L502.049 1847.62L495.568 1868.29H384.627L378.41 1847.1L345.539 1735L347.657 1839.21L347.663 1839.51V2104.33ZM1365.03 1756.55L1365.03 1756.71C1364.67 1789.21 1361.63 1820.62 1355.86 1850.93L1355.85 1850.99C1350.05 1881.07 1341.48 1909.41 1330.05 1935.92L1330.01 1936.01L1329.98 1936.1C1318.14 1963.08 1303.3 1987.97 1285.42 2010.67L1285.35 2010.76L1285.28 2010.85C1267.19 2033.45 1246.35 2052.79 1222.8 2068.73L1222.61 2068.86L1222.42 2068.98C1200.24 2083.51 1175.91 2094.68 1149.59 2102.57C1122.78 2110.61 1094.11 2114.5 1063.76 2114.5C1031.95 2114.5 1002.07 2110.25 974.374 2101.4C947.169 2092.72 922.182 2080.36 899.573 2064.27L899.24 2064.04L898.915 2063.79C877.257 2047.46 858.014 2028 841.168 2005.55L841.098 2005.45L841.028 2005.36C824.174 1982.52 810.256 1957.23 799.205 1929.62C788.891 1903.85 781.235 1876.43 776.16 1847.44L776.154 1847.41L776.149 1847.38C771.113 1818.26 768.442 1788.03 768.086 1756.72L768.084 1756.55V1653.47L768.085 1653.31C768.441 1620.6 771.288 1588.98 776.676 1558.46L776.705 1558.3L776.736 1558.13C782.523 1527.41 791.077 1498.56 802.496 1471.68L802.515 1471.64L802.534 1471.59C813.588 1445.82 827.139 1422.19 843.253 1400.84L843.277 1400.81L843.301 1400.78C859.958 1378.84 879.342 1359.83 901.415 1343.85L901.452 1343.82L901.49 1343.79C923.543 1327.94 948.133 1315.89 975.055 1307.54C1002.38 1298.73 1031.86 1294.5 1063.25 1294.5C1094.73 1294.5 1124.51 1298.76 1152.41 1307.53L1152.41 1307.53C1152.43 1307.53 1152.45 1307.54 1152.47 1307.55C1152.49 1307.55 1152.51 1307.56 1152.52 1307.56L1152.52 1307.56C1180.24 1316.19 1205.41 1328.31 1227.79 1344.11C1249.88 1359.37 1269.28 1377.83 1285.95 1399.37L1287.48 1401.33C1302.7 1421 1315.74 1442.4 1326.62 1465.46L1327.7 1467.78L1327.78 1467.96L1327.86 1468.15C1340.03 1495.42 1349.15 1524.68 1355.31 1555.83C1361.46 1586.92 1364.67 1619.44 1365.03 1653.32L1365.03 1653.48V1756.55Z" fill="white" stroke="#0092B7" stroke-width="59"/>
</svg>
