<svg width="2156" height="2156" viewBox="0 0 2156 2156" fill="none" xmlns="http://www.w3.org/2000/svg">
<path d="M860.617 1046.75C801.081 987.25 771.312 915 771.312 830C771.312 745 801.081 672.75 860.617 613.25C920.154 553.75 992.448 524 1077.5 524C1162.55 524 1234.85 553.75 1294.38 613.25C1353.92 672.75 1383.69 745 1383.69 830C1383.69 915 1353.92 987.25 1294.38 1046.75C1234.85 1106.25 1162.55 1136 1077.5 1136C992.448 1136 920.154 1106.25 860.617 1046.75ZM465.125 2156V1368.05C400.485 1296.65 350.305 1215.05 314.583 1123.25C278.861 1031.45 261 933.7 261 830C261 602.2 340.098 409.25 498.295 251.15C656.492 93.05 849.56 14 1077.5 14C1305.44 14 1498.51 93.05 1656.7 251.15C1814.9 409.25 1894 602.2 1894 830C1894 933.7 1876.14 1031.45 1840.42 1123.25C1804.7 1215.05 1754.51 1296.65 1689.88 1368.05V2156L1077.5 1952L465.125 2156ZM1511.27 1263.5C1630.34 1144.5 1689.88 1000 1689.88 830C1689.88 660 1630.34 515.5 1511.27 396.5C1392.19 277.5 1247.6 218 1077.5 218C907.396 218 762.807 277.5 643.734 396.5C524.661 515.5 465.125 660 465.125 830C465.125 1000 524.661 1144.5 643.734 1263.5C762.807 1382.5 907.396 1442 1077.5 1442C1247.6 1442 1392.19 1382.5 1511.27 1263.5Z" fill="#3178C6"/>
</svg>
