<svg width="2156" height="2156" viewBox="0 0 2156 2156" fill="none" xmlns="http://www.w3.org/2000/svg">
<g clip-path="url(#clip0_215_37)">
<rect width="2156" height="2156" fill="#CC0000"/>
<path d="M1824 210C1879.23 210 1924 254.772 1924 310V1824C1924 1879.23 1879.23 1924 1824 1924H1598C1542.77 1924 1498 1879.23 1498 1824V758C1498 702.772 1453.23 658 1398 658H1171C1115.77 658 1071 702.772 1071 758V1824C1071 1879.23 1026.23 1924 971 1924H332C276.772 1924 232 1879.23 232 1824V310C232 254.772 276.772 210 332 210H1824Z" fill="white"/>
</g>
<defs>
<clipPath id="clip0_215_37">
<rect width="2156" height="2156" rx="200" fill="white"/>
</clipPath>
</defs>
</svg>
