<svg width="2156" height="2156" viewBox="0 0 2156 2156" fill="none" xmlns="http://www.w3.org/2000/svg">
<path d="M367.877 1818.91V552.222H655.344V1818.91H367.877ZM0 595.45V337.085H1023.22V595.45H0Z" fill="#3178C6" fill-opacity="0.5"/>
<path d="M1686.61 1835C1608.21 1835 1533.49 1819.59 1462.46 1788.76C1392.1 1757.26 1330.79 1714.7 1278.52 1661.08C1226.26 1606.79 1189.07 1545.47 1166.95 1477.11L1441.35 1362.5C1454.09 1400.03 1472.51 1434.89 1496.64 1467.06C1521.43 1498.56 1549.91 1524.02 1582.07 1543.46C1614.24 1562.9 1648.75 1572.61 1685.6 1572.61C1719.77 1572.61 1750.6 1564.91 1778.07 1549.49C1805.55 1533.41 1827.32 1511.96 1843.41 1485.15C1859.49 1457.67 1867.53 1427.18 1867.53 1393.67C1867.53 1352.12 1855.47 1317.93 1831.34 1291.13C1807.89 1263.65 1776.73 1239.86 1737.87 1219.75C1699.67 1199.64 1657.12 1180.88 1610.22 1163.45C1563.31 1146.03 1516.4 1126.59 1469.5 1105.14C1423.26 1083.7 1380.71 1057.22 1341.85 1025.72C1302.98 994.224 1271.49 955.352 1247.36 909.108C1223.91 862.863 1212.18 805.225 1212.18 736.194C1212.18 651.748 1231.28 578.695 1269.48 517.036C1307.67 454.707 1360.27 406.452 1427.28 372.271C1494.96 338.09 1572.69 321 1660.47 321C1736.86 321 1805.55 333.734 1866.52 359.202C1928.17 384.67 1980.44 419.521 2023.32 463.754C2066.21 507.318 2098.37 557.248 2119.82 613.546L1855.47 722.12C1844.75 692.63 1829.33 667.162 1809.23 645.716C1789.8 624.269 1767.02 607.849 1740.88 596.456C1715.42 584.392 1688.28 578.36 1659.47 578.36C1616.58 578.36 1579.06 591.764 1546.89 618.572C1515.4 644.71 1499.65 681.907 1499.65 730.162C1499.65 772.385 1511.38 807.236 1534.83 834.714C1558.95 861.523 1590.45 884.645 1629.31 904.081C1668.18 922.847 1711.06 940.942 1757.97 958.368C1804.88 975.123 1851.45 993.889 1897.68 1014.67C1944.59 1034.77 1987.47 1060.24 2026.34 1091.07C2065.2 1121.23 2096.36 1159.43 2119.82 1205.67C2143.94 1251.92 2156 1309.22 2156 1377.58C2156 1465.38 2135.23 1543.79 2093.68 1612.83C2052.14 1681.86 1995.85 1736.14 1924.82 1775.69C1853.79 1815.23 1774.39 1835 1686.61 1835Z" fill="#3178C6" fill-opacity="0.5"/>
<path d="M2152.48 1247.39C2160.89 1270.28 2153.8 1295.8 2135.67 1312.12L2021.89 1415.79C2024.79 1437.64 2026.36 1460 2026.36 1482.63C2026.36 1505.26 2024.79 1527.63 2021.89 1549.47L2135.67 1653.14C2153.8 1669.46 2160.89 1694.98 2152.48 1717.88C2140.92 1749.19 2127 1779.19 2110.97 1808.13L2098.62 1829.45C2081.28 1858.39 2061.83 1885.76 2040.55 1911.55C2025.05 1930.49 1999.3 1936.81 1976.18 1929.44L1829.82 1882.86C1794.61 1909.97 1755.72 1932.6 1714.21 1949.7L1681.36 2099.95C1676.11 2123.9 1657.71 2142.84 1633.54 2146.79C1597.28 2152.84 1559.97 2156 1521.87 2156C1483.77 2156 1446.46 2152.84 1410.2 2146.79C1386.02 2142.84 1367.63 2123.9 1362.38 2099.95L1329.53 1949.7C1288.02 1932.6 1249.13 1909.97 1213.92 1882.86L1067.82 1929.7C1044.7 1937.07 1018.95 1930.49 1003.45 1911.81C982.166 1886.02 962.722 1858.65 945.38 1829.71L933.031 1808.4C917.002 1779.45 903.076 1749.45 891.515 1718.14C883.107 1695.25 890.201 1669.72 908.331 1653.41L1022.11 1549.73C1019.21 1527.63 1017.64 1505.26 1017.64 1482.63C1017.64 1460 1019.21 1437.64 1022.11 1415.79L908.331 1312.12C890.201 1295.8 883.107 1270.28 891.515 1247.39C903.076 1216.07 917.002 1186.08 933.031 1157.13L945.38 1135.82C962.722 1106.87 982.166 1079.51 1003.45 1053.72C1018.95 1034.77 1044.7 1028.46 1067.82 1035.82L1214.18 1082.4C1249.39 1055.3 1288.28 1032.67 1329.79 1015.56L1362.64 865.311C1367.89 841.366 1386.29 822.42 1410.46 818.473C1446.72 812.158 1484.03 809 1522.13 809C1560.23 809 1597.54 812.158 1633.8 818.21C1657.98 822.157 1676.37 841.103 1681.62 865.048L1714.47 1015.3C1755.98 1032.4 1794.87 1055.03 1830.08 1082.14L1976.44 1035.56C1999.56 1028.19 2025.31 1034.77 2040.81 1053.45C2062.1 1079.24 2081.54 1106.61 2098.88 1135.55L2111.23 1156.87C2127.26 1185.81 2141.19 1215.81 2152.75 1247.12L2152.48 1247.39ZM1522.13 1693.14C1577.88 1693.14 1631.35 1670.96 1670.77 1631.48C1710.19 1592.01 1732.34 1538.46 1732.34 1482.63C1732.34 1426.8 1710.19 1373.26 1670.77 1333.78C1631.35 1294.3 1577.88 1272.12 1522.13 1272.12C1466.38 1272.12 1412.91 1294.3 1373.49 1333.78C1334.07 1373.26 1311.93 1426.8 1311.93 1482.63C1311.93 1538.46 1334.07 1592.01 1373.49 1631.48C1412.91 1670.96 1466.38 1693.14 1522.13 1693.14Z" fill="#3178C6"/>
</svg>
